<svg width="1125" height="1110" viewBox="0 0 1125 1110" fill="none" xmlns="http://www.w3.org/2000/svg">
<path d="M506.626 84.9996C516.092 85.813 520.239 88.1996 528.999 90.2796L554.332 95.0929C574.852 98.0396 596.279 98.5729 616.999 98.3329L630.332 97.1196C650.199 95.7596 669.985 94.3196 688.999 87.6263C706.785 81.3596 697.559 71.2396 705.465 54.3463C708.839 47.1463 712.919 46.1197 718.212 40.8797C724.532 34.6264 728.345 28.1197 735.785 22.3331C739.039 19.7997 747.039 13.7064 750.332 12.0131C756.079 9.02641 764.052 6.81308 770.332 5.15975C780.292 2.53309 783.652 1.05309 794.332 0.999756H807.665C828.532 1.09309 853.465 9.93307 868.999 23.8931C883.079 36.5464 887.358 46.5997 896.225 62.333L910.745 88.9996L917.825 101L922.638 114.333C930.118 134.36 930.532 128.066 932.772 151.666C934.252 167.146 933.638 193.666 938.958 207.666C944.292 221.733 953.945 238.653 966.332 247.386C978.518 255.986 996.905 257.813 1001 274.333C992.025 276.133 992.025 276.959 982.332 276.999C960.385 277.106 938.492 271.359 922.345 255.613C909.105 242.693 904.438 229.999 899.665 224.999C899.185 230.959 896.945 239.693 897.665 244.999C899.385 257.573 910.585 275.693 920.998 282.733L948.998 295.666C943.225 306.146 936.878 307.066 926.332 309.986C910.105 314.493 892.092 315.159 876.998 306.399C869.758 302.186 858.852 291.333 853.132 284.999C846.292 277.413 844.919 271.133 840.652 262.333L829.065 235.666L824.279 219.666C822.012 213.213 813.412 195.079 809.892 188.999C793.972 161.573 774.679 154.546 757.279 133C752.132 126.64 747.412 112.96 744.439 105C738.625 89.4796 729.425 67.1197 730.452 50.333L732.999 36.9997C724.225 45.3464 726.212 60.5197 726.332 71.6663C726.559 90.9863 734.372 110.453 742.679 127.666C746.452 135.493 753.359 146.88 755.665 154.333L727.665 147.666L726.332 149L755.385 211.666V223.666L754.332 242.333L752.999 263.666L751.665 298.333L747.665 366.333L746.332 384.999V404.999L744.999 426.332L730.332 424.612L691.665 419.666L650.332 416.999H638.332L622.332 415.666H582.332L559.666 414.332H532.999L511.666 412.999H486.332C482.292 412.986 474.346 413.159 471.692 409.586C469.986 407.266 470.386 402.492 470.319 399.666L468.999 382.332V371.666L466.332 334.333L465.052 320.999V302.333L462.759 274.333L463.612 266.333L460.999 230.333C460.706 205.199 465.439 198.546 476.839 176.999L483.559 163.666C488.786 155.013 494.466 149.426 498.332 139.666C483.879 139.986 477.746 144.853 464.999 150.333L478.479 114.333C482.079 103.213 486.599 76.7196 486.319 64.9997L484.999 51.6663C494.892 53.7597 504.946 64.2797 506.626 74.333C507.599 77.8796 506.786 81.4796 506.626 84.9996ZM1097 228.999C1099.29 235.906 1095.13 247.213 1093.56 254.333L1079.94 311.666L1071.78 347.666L1069.7 362.333L1060.56 394.332C1056.98 401.852 1045.69 414.506 1040.05 422.332L1014.98 455.666L1007.01 467.666L987.945 492.999L979.985 504.999L968.625 519.666L951.732 544.612C948.585 548.986 924.518 574.265 920.772 577.132L910.332 583.666C918.905 582.772 932.038 578.412 937.532 571.612C942.092 565.972 948.198 551.292 955.718 550.639C959.145 550.346 970.385 553.492 974.332 554.506C989.038 558.239 1003.3 564.292 1017 570.759L1034.33 579.065C1039.85 581.332 1056.24 589.439 1056.88 595.786C1057.36 600.666 1050.89 606.105 1047.86 609.225C1036.88 620.559 1031.61 624.612 1017 631.252C993.558 641.892 959.652 641.279 934.332 639.545L904.998 636.945H892.998L878.332 635.692C860.172 636.039 851.905 640.412 835.665 644.999C844.719 624.705 860.692 597.759 878.385 584.159C886.532 577.905 892.865 575.505 902.332 571.972C908.065 569.826 912.852 569.386 915.945 563.532L933.692 515.666L952.678 470.332L962.945 439.666L982.745 390.332L996.212 350.333L1002.72 329.119C1004.97 325.026 1013.29 316.866 1016.77 312.999L1046.33 282.279L1074.02 252.759L1081.18 243.906L1097 228.999ZM722.332 238.333C709.265 242.133 698.065 249.986 686.332 256.506L652.999 275.853L626.332 289.959L602.332 303.413C598.692 305.613 594.826 308.813 590.332 307.706C583.959 306.133 568.372 293.173 562.319 288.813L544.999 277.773C526.932 265.039 522.106 259.213 500.999 247.959C494.519 244.506 490.652 240.319 483.666 238.333L488.519 268.999C488.359 271.959 487.332 275.186 488.519 278.079C489.759 281.306 501.386 288.573 504.999 291.559L552.999 327.693C561.932 333.893 581.599 351.279 591.666 351.399C599.826 351.506 615.026 340.386 622.332 335.933L663.666 312.546L688.999 296.799C695.252 293.226 715.305 283.386 718.319 278.199C722.252 271.426 722.332 246.866 722.332 238.333ZM278.333 936.998H211.666L191.666 938.332H173L157 939.545L119.666 940.998L98.3331 942.385H76.9998L60.9998 943.665H28.9998C26.0132 943.665 21.2798 943.945 18.7332 942.305C14.3199 939.452 13.4665 926.145 13.1199 920.998L10.3332 855.665L9.0532 840.998V827.665L7.66653 807.665L6.3332 780.999V755.665L4.99987 735.665L3.66654 672.999L2.38654 656.999V638.332L0.999878 608.999V499.666L2.21321 486.332L3.78654 456.999L4.99987 440.999C5.06654 436.292 6.0132 421.119 9.74653 418.359C11.8665 416.786 31.9065 415.666 35.6665 415.666H66.3331L88.9997 414.332H272.999L292.999 415.666L350.333 416.999L372.999 418.332L415.666 420.999H431.666L494.332 426.332L512.999 427.666L567.666 430.332L587.666 431.719H603.666L619.666 432.999L678.332 436.786L734.332 443.239C746.852 446.346 755.545 458.772 763.785 467.666C773.412 478.052 782.759 485.572 794.332 493.586C803.945 500.226 819.559 509.372 830.332 513.732L844.999 518.932L863.665 526.746L919.665 540.999L912.038 564.239C908.798 567.905 898.078 570.372 892.998 572.719C877.438 579.932 871.745 582.665 859.785 595.665L820.879 652.972C810.705 663.732 790.359 672.279 775.652 674.199H758.332C752.105 674.252 732.879 671.052 728.719 666.732C725.652 663.545 725.012 657.199 724.119 652.999C721.932 642.772 720.519 626.785 716.999 618.332L722.332 676.999L755.665 682.105C760.772 682.612 765.425 681.012 768.999 684.852C770.905 684.692 772.172 684.172 774.212 684.852C777.625 685.585 787.132 695.172 790.332 697.959C816.572 720.799 810.065 717.199 840.999 733.919C862.732 745.679 886.039 754.145 908.998 763.039C915.025 765.372 928.492 772.519 934.332 772.025C941.185 771.439 953.492 763.319 959.665 759.892L995.665 743.039L1030.33 731.479C1036.48 729.292 1042.66 727.985 1047.66 723.665L1010.33 728.479C996.345 730.959 975.905 737.559 962.332 742.452C953.692 745.559 933.065 758.305 924.998 756.012C918.825 754.265 905.278 743.425 899.665 739.319L870.332 716.612L843.665 691.545C837.212 685.532 820.039 673.812 826.039 663.692C830.745 655.732 846.999 652.132 855.665 650.332C887.652 643.705 909.065 645.105 940.998 644.999C956.065 644.959 970.092 645.679 984.998 642.492C989.865 641.439 1006.25 637.772 1010.1 639.745C1014.29 641.892 1021.85 656.199 1024.89 660.999L1035.84 680.999C1040.76 689.225 1056.65 711.199 1063.68 716.879C1069.65 721.145 1074.42 718.745 1081 716.879C1092.8 714.345 1105.24 710.905 1112.45 723.665C1120.84 738.519 1123.69 764.065 1123.66 780.999C1123.62 808.892 1114.74 861.678 1107.46 888.998L1097 923.665C1095.89 926.905 1093.36 935.065 1090.73 937.012C1088.49 938.678 1083.74 938.332 1081 938.545H1043.66H1031.66C1007.26 938.292 983.945 938.478 959.665 935.278L911.665 927.518C907.758 927.558 900.145 928.812 897.185 927.518C892.638 925.012 894.558 921.518 886.305 912.998L866.332 895.465L852.878 882.545L828.999 862.105L795.439 831.025L783.719 822.212L762.279 802.532C751.305 794.199 747.252 794.118 738.332 788.572C732.225 784.772 730.945 782.492 723.665 779.665L732.892 800.998L740.132 820.998L759.439 843.665L786.559 874.278L826.599 915.652L838.332 931.665H808.999H750.332L744.999 880.998H742.332L739.665 919.665L738.332 960.998H718.332L696.999 959.665L619.666 954.558L594.332 952.772L578.332 950.558L534.332 947.438L510.332 943.892L479.666 941.958L444.999 938.452L432.999 939.665C434.826 953.505 439.079 972.598 445.359 984.998C449.012 992.185 453.839 997.865 458.893 1004.04L469.226 1016.88C477.252 1025.24 497.026 1037.41 507.666 1042.65C519.106 1048.3 537.612 1055.5 550.332 1055.66H592.999L620.972 1053.52C625.879 1053.96 628.919 1057.34 628.012 1062.33C626.239 1072.05 617.119 1074.69 608.999 1076.84L556.999 1088.89L519.666 1096.64L500.999 1098.56L476.999 1102.1L451.666 1103.89L420.999 1107.61H408.999L392.999 1109H327.666C313.879 1108.97 299.946 1107.21 286.333 1105.38L222.333 1095.36L197 1088.3L169 1080.26L154.333 1074.08L138.36 1069.09C127.706 1062.77 129.066 1047.09 139.786 1041.41C145.04 1038.64 163.48 1039.74 170.333 1039.66C181.346 1039.53 192.053 1035.92 202.333 1032.21C208.493 1030 218.24 1026.89 223.666 1023.73C228.066 1021.16 231.8 1017.64 235.786 1014.49L249.746 1003.26C264.999 987.758 276.573 958.638 278.333 936.998ZM714.279 467.666L642.332 464.999L619.666 463.666L548.999 462.332L528.999 460.999H511.666L491.666 459.666H460.999L436.999 458.332H384.999L362.333 456.999H275.666L252.999 455.666H209L189 454.332H159.666L138.333 452.999H102.333L79.6664 451.666L36.9998 450.332C34.5998 458.799 35.6665 479.199 35.6665 488.999V550.332L36.9998 572.999V624.999L38.3332 647.665L39.6665 688.999L40.9998 711.665V730.332L42.3331 756.999V788.999L43.6798 811.665V888.998C43.6131 893.278 41.4265 903.945 43.6798 906.865C46.5198 910.505 61.7064 910.278 66.3331 910.332L86.3331 911.665H102.333L122.333 910.332H159.666L175.666 909.052H194.333L215.666 907.505H238.333H254.333L272.999 906.332C275.373 906.318 279.426 906.558 281.346 905.012C284.239 902.678 283.613 895.278 284.039 891.665L287.853 853.052L294.333 747.665L295.666 726.332C295.679 716.532 294.506 707.532 298.333 698.332L302.333 735.665L303.666 788.999L304.999 811.665V880.998L303.666 908.998C303.439 927.985 295.093 968.945 287.733 986.332C282.253 999.265 267.919 1018.52 256.986 1027.2L232.053 1044.5C230.133 1046.28 230.12 1046.88 229 1049L248.999 1055.01L282.333 1061.61L295.666 1064.62C312.506 1067.44 362.226 1071.32 379.653 1071.6L416.999 1070.33L452.999 1067.1C459.146 1066.26 463.559 1066.82 468.999 1063.66C460.266 1057.78 448.773 1049.93 441.893 1042.1C410.879 1006.82 403.973 958.065 400.879 912.998L399.559 899.665V880.998L396.999 856.998V799.665L395.5 786.5L398.279 772.999L399.666 752.999C399.679 745.119 401.386 712.545 403.186 706.332C404.146 702.999 405.973 699.999 407.666 696.999L410.119 711.652L415.786 792.999L419.439 830.332L421.786 858.332L426.239 891.665C426.573 895.358 426.799 902.545 429.959 905.012C432.106 906.678 437.013 906.332 439.666 906.332H475.666L498.332 907.665L560.999 908.998L580.999 910.332L622.332 912.878C653.212 914.985 683.945 917.558 714.332 923.665V828.998L712.999 808.998V787.665C712.999 784.892 713.305 780.012 711.639 777.745C708.999 774.185 703.825 775.892 699.652 770.145C694.359 762.825 690.025 747.492 690.385 738.332C690.665 731.025 694.825 713.825 698.439 707.665C705.545 695.585 711.625 701.705 711.665 683.665V546.332L712.999 526.332V502.332L714.279 486.332V467.666Z" fill="#151515" stroke="black" stroke-width="1.33333"/>
</svg>
